<!-- icon666.com - MILLIONS OF FREE VECTOR ICONS --><svg version="1.1" id="Layer_1" xmlns="http://www.w3.org/2000/svg" xmlns:xlink="http://www.w3.org/1999/xlink" x="0px" y="0px" viewBox="0 0 501.523 501.523" style="enable-background:new 0 0 501.523 501.523;" xml:space="preserve"><g><path style="fill:#FFEB99;" d="M42.812,141.146l0.071,0.123L42.812,141.146z"></path><path style="fill:#FFEB99;" d="M240.435,181.041c0-12.609,3.883-24.326,10.508-34.029l-0.001-46.749 c-63.554,0.001-126.082,16.672-180.828,48.21l-17.311,9.973l198.144,343.076l-0.004-286.451 C244.318,205.369,240.435,193.651,240.435,181.041z M154.522,142.11h40v40h-40V142.11z M182.813,363.519h-11.546l-46.634-80.755 l5.787-10.006c10.788-18.65,30.863-30.235,52.393-30.235c33.358,0,60.498,27.139,60.498,60.498S216.172,363.519,182.813,363.519z"></path><path style="fill:#FFDA44;" d="M458.993,141.179l-3.509,6.077L458.993,141.179z"></path><path style="fill:#FFDA44;" d="M250.948,100.263c-0.005,0-0.005,46.749-0.005,46.749c10.903-15.966,29.241-26.469,49.99-26.469 c33.358,0,60.498,27.139,60.498,60.498c0,33.359-27.14,60.498-60.498,60.498c-20.749,0-39.086-10.503-49.989-26.468l0.004,286.451 L448.993,158.5l-17.32-10C377.015,116.943,314.521,100.263,250.948,100.263z M312.373,328.511h-40v-40h40V328.511z"></path><path style="fill:#FFB655;" d="M250.943,100.263c0.005,0,0.414-100.263,0.414-100.263C170.336,0,90.402,21.379,20.196,61.824 L2.53,72.087l10.465,17.299l29.818,51.76l0.071,0.123l9.902,17.188c0.019-0.011,17.33-9.984,17.33-9.984 C124.86,116.935,187.389,100.264,250.943,100.263z"></path><path style="fill:#FFA733;" d="M498.993,71.897l-17.32-10C411.536,21.404,331.894,0,251.357,0l-0.409,100.263 c63.573,0,126.067,16.68,180.725,48.237l17.32,10l6.491-11.243l3.509-6.077L498.993,71.897z"></path><path style="fill:#FF0C38;" d="M130.421,272.758l-5.787,10.006l46.634,80.755h11.546V242.523 C161.284,242.523,141.209,254.108,130.421,272.758z"></path><path style="fill:#D80027;" d="M182.813,242.523v120.996c33.358,0,60.498-27.139,60.498-60.498S216.172,242.523,182.813,242.523z"></path><path style="fill:#FF0C38;" d="M250.944,215.071c10.903,15.965,29.24,26.468,49.989,26.468V120.543 c-20.749,0-39.087,10.504-49.99,26.469c-6.625,9.702-10.508,21.419-10.508,34.029C240.435,193.651,244.318,205.369,250.944,215.071 z"></path><path style="fill:#D80027;" d="M361.431,181.041c0-33.359-27.14-60.498-60.498-60.498v120.996 C334.292,241.539,361.431,214.4,361.431,181.041z"></path><rect x="154.522" y="142.11" style="fill:#91DC5A;" width="40" height="40"></rect><rect x="272.373" y="288.511" style="fill:#91DC5A;" width="40" height="40"></rect></g></svg>